<?xml version="1.0" encoding="UTF-8" standalone="no"?>
<!DOCTYPE svg PUBLIC "-//W3C//DTD SVG 1.1//EN" "http://www.w3.org/Graphics/SVG/1.1/DTD/svg11.dtd">
<svg width="100%" height="100%" viewBox="0 0 656 253" version="1.1" xmlns="http://www.w3.org/2000/svg" xmlns:xlink="http://www.w3.org/1999/xlink" xml:space="preserve" xmlns:serif="http://www.serif.com/" style="fill-rule:evenodd;clip-rule:evenodd;stroke-linejoin:round;stroke-miterlimit:2;">
    <g transform="matrix(1,0,0,1,0,-232)">
        <g id="Artboard2" transform="matrix(1,0,0,1,-130,-48)">
            <rect x="130" y="280" width="656" height="253" style="fill:none;"/>
            <g id="english" transform="matrix(0.467308,0,0,0.467308,225.549206,350.355702)">
                <path d="M148.038,301.22C153.293,282.588 157.223,264.072 160.473,245.415C160.891,243.018 161.803,240.006 158.7,238.241C157.026,237.288 155.575,236.092 156.196,233.895C156.922,231.326 158.553,229.544 161.244,228.877C167.259,227.387 172.092,230.628 173.125,236.949C173.391,238.579 173.362,240.258 173.5,242.398C177.619,239.584 181.148,236.342 185.662,234.737C193.309,232.019 200.93,231.066 208.23,235.593C216.54,240.748 218.896,249.2 214.279,257.938C208.734,268.431 200.08,275.804 189.679,281.25C188.53,281.852 187.331,282.358 185.59,283.173C190.281,290.17 194.299,297.16 200.937,302.172C202.655,303.469 204.607,303.521 206.518,304.027C209.601,304.843 213.34,306.116 212.912,309.807C212.506,313.303 210.392,316.65 206.012,317.259C198.599,318.29 192.467,315.487 187.729,310.227C182.07,303.947 176.808,297.249 172.734,289.784C171.16,286.898 169.024,285.849 165.86,285.883C162.983,297.467 160.181,308.892 157.279,320.291C156.793,322.202 156.046,324.094 155.116,325.832C153.646,328.578 151.761,331.036 148.059,329.717C144.202,328.344 141.784,325.896 142.895,321.411C144.533,314.801 146.242,308.21 148.038,301.22M203.297,251.72C204.39,247.336 202.384,245.482 198.162,245.352C185.608,244.966 171.245,257.504 170.04,269.926C180.428,273.108 195.374,265.154 203.297,251.72Z" style="fill:rgb(51,51,51);fill-rule:nonzero;"/>
                <path d="M545.008,311.133C546.367,297.664 550.986,285.24 552.713,272.045C549.576,271.102 547.078,272.383 544.553,272.765C539.628,273.508 534.938,273.049 530.435,270.852C528.706,270.008 527.156,269.108 527.532,266.785C527.937,264.288 529.654,263.659 531.876,263.62C538.75,263.502 545.411,262.33 551.962,260.136C554.558,259.267 555.789,257.908 556.327,255.404C557.376,250.532 558.474,245.667 559.708,240.839C560.261,238.673 561.342,236.521 564.09,237.001C566.645,237.448 567.951,239.299 568.26,241.94C568.724,245.914 566.734,249.767 567.676,254.567C573.367,252.384 578.708,250.293 584.083,248.295C586.38,247.441 588.841,246.029 591.105,248.127C592.64,249.55 594.714,251.004 594.222,253.492C593.63,256.488 591.468,258.394 588.679,259.375C581.929,261.75 575.163,264.093 568.332,266.217C565.976,266.949 564.714,268.033 564.251,270.539C562.196,281.645 559.98,292.723 557.805,303.807C557.49,305.412 556.935,307 557.959,308.943C563.906,305.879 567.821,300.654 572.335,296.144C576.952,291.531 580.904,286.71 583.696,280.444C588.088,270.591 597.268,266.829 606.729,269.079C616.884,271.495 621.879,279.598 620.151,291.226C619.073,298.476 615.97,304.943 611.169,310.421C603.162,319.558 587.944,317.958 581.669,307.513C581.004,306.407 580.254,305.353 579.421,304.09C574.719,310.328 569.682,315.753 563.725,320.338C559.191,323.828 554.554,324.798 549.415,322.018C545.19,319.733 545.361,315.515 545.008,311.133M605.018,299.479C608.543,295.611 609.176,290.87 608.841,285.959C608.582,282.151 606.573,280.449 602.492,280.978C597.232,281.662 595.287,285.617 592.856,289.438C589.584,294.582 589.53,298.958 593.231,302.312C596.313,305.105 599.704,304.41 605.018,299.479Z" style="fill:rgb(51,51,51);fill-rule:nonzero;"/>
                <path d="M685.915,321.262C665.117,313.921 656.064,296.731 661.445,274.991C664.328,263.342 669.805,252.881 677.674,243.82C682.23,238.573 687.507,234.262 695.206,234.852C696.143,234.923 697.151,234.465 698.083,234.132C709.22,230.16 718.635,234.199 723.53,244.998C727.828,254.482 727.799,264.346 726.341,274.377C724.053,290.124 718.49,304.169 706.044,314.86C700.295,319.799 693.91,322.272 685.915,321.262M697.441,306.055C709.845,296.944 714.432,283.857 715.581,269.298C716.085,262.903 716.493,256.323 713.566,250.162C710.701,244.132 706.447,242.824 700.67,246.206C698.86,247.266 697.218,249.31 694.895,248.685C691.286,247.715 689.169,249.635 687.28,252.061C684.527,255.599 681.503,259.019 679.338,262.903C673.867,272.718 670.291,283.252 674.44,294.349C678.673,305.667 686.631,312.795 697.441,306.055Z" style="fill:rgb(51,51,51);fill-rule:nonzero;"/>
                <path d="M346.758,261.125C345.961,265.561 343.29,267.071 339.31,267.348C330.859,267.935 322.398,268.487 314.072,270.277C311.874,270.75 310.347,271.517 309.894,273.84C308.022,283.448 305.909,293.02 305.676,302.863C305.67,303.126 306.025,303.397 306.411,303.952C309.925,302.72 313.374,299.025 317.498,303.066C319.582,305.108 320.392,307.171 319.068,309.713C317.052,313.583 314.497,317.178 310.896,319.661C304.655,323.964 293.171,318.971 291.354,311.125C289.623,303.645 291.198,296.245 292.693,288.897C293.65,284.194 294.63,279.497 295.661,274.5C292.155,274.024 289.264,275.49 286.232,275.971C283.973,276.329 281.738,277.567 279.394,276.584C277.574,275.82 275.338,275.121 275.222,272.789C275.112,270.577 276.715,269.221 278.77,268.486C283.941,266.636 289.028,264.488 294.304,263.016C297.551,262.109 298.974,260.338 299.594,257.274C300.616,252.224 301.736,247.189 302.968,242.186C303.67,239.334 304.83,236.71 308.5,236.816C312.363,236.926 313.833,239.571 313.811,242.777C313.777,247.72 313.155,252.659 312.752,258.007C320.452,257.982 327.813,255.739 335.352,255.18C340.193,254.821 344.837,254.985 346.758,261.125Z" style="fill:rgb(51,51,51);fill-rule:nonzero;"/>
                <path d="M829.944,273.664C835.797,273.724 841.354,274.678 843.421,280.096C845.49,285.521 841.638,289.931 838.023,293.654C830.706,301.189 821.807,305.6 811.134,306.084C810.978,309.416 813.191,310.098 815.5,310.723C824.787,313.234 833.2,311.231 841.169,306.115C844.171,304.189 847.672,300.251 851.121,304.695C854.377,308.891 849.62,311.326 847.417,313.723C837.733,324.262 825.731,327.988 812.122,323.204C796.944,317.867 793.358,305.753 801.432,289.927C806.947,279.116 817.495,274.549 829.944,273.664M812.644,294.809C812.328,295.708 812.012,296.607 811.66,297.608C820.173,297.371 829.886,291.1 831.753,284.355C824.062,285.386 817.619,288.026 812.644,294.809Z" style="fill:rgb(51,51,51);fill-rule:nonzero;"/>
                <path d="M440.175,299.223C442.812,291.408 442.026,283.778 441.644,276.174C441.568,274.669 440.723,273.704 439.267,273.34C436.72,272.704 435.726,270.85 435.869,268.497C436.038,265.724 437.78,263.982 440.36,263.077C444.962,261.462 450.405,263.647 452.71,267.991C453.401,269.293 453.36,270.965 454.708,271.933C455.636,272.28 456.299,271.773 456.901,271.197C461.568,266.729 466.979,265.28 472.941,267.95C479.509,270.892 483.14,276.36 484.243,283.35C485.123,288.928 485.309,294.513 484.441,300.212C483.824,304.265 482.804,308.375 485.763,312.626C487.723,315.443 485.458,318.697 481.873,319.864C477.177,321.391 473.002,319.532 471.844,315.161C470.626,310.564 471.459,305.891 472.385,301.349C473.555,295.604 474.251,289.867 473.752,284.006C473.462,280.598 472.232,277.713 468.752,276.693C465.59,275.766 463.998,278.277 462.305,280.357C457.724,285.988 454.132,292.002 453.41,299.493C452.9,304.792 451.539,309.993 449.602,314.946C448.397,318.028 446.762,321.033 442.266,319.938C437.939,318.884 437.106,316.358 437.358,312.219C437.626,307.812 438.663,303.707 440.175,299.223Z" style="fill:rgb(51,51,51);fill-rule:nonzero;"/>
                <path d="M787.41,315.924C785.719,320.747 782.445,322.25 777.901,321.34C773.295,320.418 771.998,317.185 771.682,312.94C771.209,306.592 773.465,300.809 775.041,294.89C775.871,291.773 776.258,288.655 775.87,285.503C775.227,280.29 771.671,278.655 767.376,281.703C762.619,285.078 759.94,290.174 757.261,295.155C754.407,300.459 752.705,306.205 751.351,312.063C750.942,313.831 750.599,315.787 749.587,317.2C748.185,319.158 746.525,321.079 743.375,320.17C740.516,319.345 739.299,317.486 738.857,314.848C738.458,312.469 739.181,310.238 739.949,308.016C742.944,299.353 745.796,290.669 745.692,281.32C745.662,278.688 745.405,276.419 742.958,274.805C741.745,274.005 740.46,272.845 741.065,271.087C741.693,269.261 742.993,268.096 744.984,267.632C749.502,266.58 752.2,268.3 755.966,274.872C757.641,274.902 758.484,273.454 759.636,272.623C765.726,268.23 772.522,267.3 778.981,270.625C785.09,273.77 787.939,279.705 788.324,286.717C788.648,292.617 787.222,298.286 786.18,303.977C785.428,308.08 785.579,311.854 787.41,315.924Z" style="fill:rgb(51,51,51);fill-rule:nonzero;"/>
                <path d="M240.396,315.502C227.461,311.749 224.058,300.919 230.073,288.857C233.404,282.175 238.668,277.099 245.118,273.268C250.109,270.304 255.341,270.532 260.54,272.22C266.246,274.072 268.166,278.414 265.742,284.035C262.122,292.427 254.634,296.498 246.894,300.165C245.27,300.934 243.545,301.49 240.682,302.606C246.844,304.487 251.764,304.234 256.42,301.93C261.176,299.577 265.713,296.779 270.347,294.177C273.1,292.631 275.726,292.425 277.953,295.077C280.436,298.033 278.626,300.276 276.633,302.47C266.961,313.115 255.513,318.904 240.396,315.502M246.081,290.045C249.919,288.068 253.508,285.813 256.524,281.555C250,281.442 247.171,285.321 244.224,288.826C243.223,290.016 244.246,290.501 246.081,290.045Z" style="fill:rgb(51,51,51);fill-rule:nonzero;"/>
                <path d="M334.037,289.478C335.603,284.827 337.04,280.559 339.652,276.84C341.232,274.59 343.167,272.37 346.19,273.982C349.082,275.524 349.525,278.033 348.193,281.208C345.607,287.368 343.876,293.779 344.248,300.575C344.511,305.376 347.522,307.192 351.59,304.637C356.002,301.865 359.69,298.598 360.045,292.568C360.303,288.176 360.888,283.606 363.349,279.658C365.383,276.395 368.059,274.331 372.06,275.9C375.853,277.387 376.226,280.507 375.711,284.143C375.191,287.817 374.026,291.228 372.561,294.589C370.887,298.429 371.69,301.629 374.98,304.32C377.124,306.074 379.847,307.795 377.483,311.256C375.32,314.424 372.476,314.841 369.214,313.215C367.294,312.258 365.453,311.143 363.119,309.845C358.47,314.461 353.225,318.238 345.832,317.305C338.764,316.413 332.543,311.471 332.62,303.75C332.667,299.062 333.221,294.478 334.037,289.478Z" style="fill:rgb(51,51,51);fill-rule:nonzero;"/>
                <path d="M412.341,289.394C407.48,294.232 407.824,300.261 407.412,306.008C407.183,309.208 406.739,312.306 405.19,315.113C403.694,317.825 401.849,320.335 398.154,319.299C394.563,318.293 391.662,316.485 391.919,312.105C392.075,309.454 391.869,306.646 392.682,304.193C396.246,293.429 394.814,282.464 394.334,271.549C394.191,268.287 394.446,264.834 397.673,264.152C401.363,263.373 403.61,266.104 404.355,269.931C404.814,272.288 404.962,274.826 406.652,277.199C410.876,274.027 414.172,269.913 419.346,268.417C423.336,267.263 426.759,267.375 429.956,270.353C432.534,272.754 433.036,275.654 431.683,278.508C430.333,281.356 427.731,282.467 424.57,280.889C422.34,279.777 420.627,280.999 419.174,282.34C416.861,284.475 414.767,286.847 412.341,289.394Z" style="fill:rgb(51,51,51);fill-rule:nonzero;"/>
            </g>
            <g id="chinese" transform="matrix(1,0,0,1,-30.268456,-187.682348)">
                <path d="M593.148,616.066C584.841,614.054 576.869,612.32 569.502,608.747C566.653,607.366 564.63,607.822 562.557,610.153C558.748,614.437 553.937,617.415 548.827,619.914C547.335,620.644 545.805,621.371 544.067,621.185C541.506,620.911 538.783,620.252 538.092,617.575C537.391,614.86 539.239,613.032 541.734,611.767C546.613,609.294 551.482,606.75 555.225,602.596C550.527,596.781 549.414,596.671 543.652,601.124C541.32,602.927 538.969,604.381 536.163,601.667C533.376,598.973 533.853,596.729 536.206,593.946C541.57,587.602 546.681,581.043 551.843,574.531C552.637,573.528 553.682,572.571 553.628,571.113C553.479,570.983 553.352,570.783 553.247,570.794C539.281,572.222 541.389,571.062 540.454,558.394C539.901,550.901 541.718,543.534 543.379,536.24C544,533.508 545.154,531.839 548.613,531.348C553.077,530.714 556.474,526.833 561.46,526.507C571.289,525.864 578.59,531.78 579.262,541.739C579.852,550.476 578.137,558.912 575.894,567.296C575.022,570.555 574.571,573.924 569.765,574.931C574.051,576.86 577.706,578.609 578.373,583.345C578.993,587.753 577.341,591.463 574.848,595.467C583.782,598.601 592.335,601.567 601.421,602.665C602.737,602.824 604.108,602.608 605.406,602.835C608.692,603.411 611.745,604.697 612.019,608.488C612.267,611.929 609.843,613.911 606.837,615.006C602.532,616.574 598.074,616.817 593.148,616.066M553.968,538.29C551.943,539.34 550.78,540.882 551.88,543.143C553.015,545.478 554.98,544.348 556.701,543.952C559.453,543.319 562.201,542.672 564.949,542.022C566.295,541.703 567.568,541.282 567.574,539.546C567.581,537.716 566.419,536.818 564.844,536.478C561.281,535.708 557.91,536.515 553.968,538.29M565.07,584.197C563.101,584.326 561.056,584.172 559.184,584.667C557.424,585.133 555.458,586.459 557.101,588.568C558.611,590.505 560.987,591.849 563.588,591.613C566.233,591.374 567.273,588.986 568.176,586.895C569.082,584.797 567.495,584.38 565.07,584.197M562.983,553.236C560.52,553.601 558.066,554.067 555.591,554.304C552.699,554.58 551.992,556.035 552.904,559.452C557.276,556.716 562.52,557.3 566.57,554.346C565.688,552.481 564.605,553.122 562.983,553.236Z" style="fill:rgb(51,51,51);fill-rule:nonzero;"/>
                <path d="M395.589,554.528C400.773,552.541 405.577,550.653 410.439,548.924C414.354,547.531 420.303,549.907 421.873,553.33C423.055,555.91 420.5,560.896 416.328,562.272C412.203,563.633 411.67,565.719 412.195,569.63C412.99,575.545 412.868,581.578 413.308,587.548C414.069,597.866 418.924,601.002 428.724,597.616C435.918,595.13 441.863,590.5 448.094,586.345C450.551,584.706 453.064,582.901 456.345,584.782C462.007,588.027 462.51,592.151 457.753,596.665C449.277,604.709 439.436,610.299 428.064,613.011C412.369,616.753 401.02,605.705 398.758,592.505C398.098,588.659 397.906,584.731 397.42,580.072C391.159,591.235 385.207,601.744 379.365,612.313C376.944,616.694 372.397,619.468 369.557,618.014C365.049,615.706 363.687,611.585 366.087,606.05C370.626,595.586 377.446,586.518 384.109,577.366C385.065,576.052 385.906,574.655 387.061,572.902C380.259,573.475 374.178,575.432 367.854,575.262C366.191,575.217 364.493,575.338 362.873,575.043C360.366,574.586 357.715,573.756 357.305,570.826C356.88,567.795 359.646,567.159 361.753,566.286C372.682,561.759 383.89,558.029 395.589,554.528Z" style="fill:rgb(51,51,51);fill-rule:nonzero;"/>
                <path d="M680.984,537.437C684.674,536.593 687.902,535.817 690.096,539.688C692.244,543.477 692.211,546.438 688.126,548.924C685.818,550.329 683.43,551.505 680.891,552.211C675.634,553.675 672.504,556.465 671.507,562.264C670.214,569.785 669.789,569.686 676.79,572.424C678.171,572.964 679.496,573.693 680.763,574.47C682.919,575.794 684.236,577.567 683.421,580.293C682.602,583.03 680.76,584.47 677.929,584.475C675.275,584.48 672.463,584.849 670.001,584.116C665.788,582.862 663.95,584.86 662.286,588.149C659.494,593.667 655.774,598.597 651.882,603.37C646.325,610.186 640.411,610.935 633.115,606.25C630.874,604.811 630.556,603.014 630.729,600.737C630.907,598.399 632.241,597.059 634.395,596.594C644.461,594.421 646.353,584.991 650.871,577.954C652.245,575.814 649.473,574.52 648.812,572.765C646.431,566.44 642.477,565.32 635.829,566.567C630.053,567.651 623.497,567.336 618.196,563.167C616.184,561.584 613.863,560.06 615.249,557.093C616.456,554.511 618.741,554.133 621.58,554.488C628.053,555.297 634.508,555.119 640.845,553.082C643.925,552.092 645.392,550.441 645.794,547.106C646.488,541.344 647.778,535.656 648.76,529.926C649.117,527.838 650.111,526.632 652.349,526.552C654.67,526.469 656.185,527.406 656.795,529.681C657.723,533.137 657.416,536.627 656.909,540.086C656.622,542.05 655.977,543.967 656.996,546.238C660.799,546.141 663.56,545.065 663.926,540.534C664.354,535.241 665.108,529.975 665.572,524.684C665.884,521.13 667.874,519.624 671.191,519.792C674.623,519.965 676.033,522.215 676.383,525.401C676.853,529.678 676.622,533.951 676.14,538.064C678.022,539.246 679.25,537.976 680.984,537.437Z" style="fill:rgb(51,51,51);fill-rule:nonzero;"/>
                <path d="M697.109,570.311C687.967,565.363 687.121,562.497 691.556,553.523C697.826,540.833 706.797,529.644 712.146,516.452C713.204,513.845 713.826,511.062 714.851,508.439C715.88,505.803 717.645,503.719 720.794,504.135C723.573,504.503 724.873,506.331 725.417,509.206C726.774,516.375 724.032,522.646 721.484,528.932C719.42,534.025 716.64,538.784 713.595,543.377C711.403,546.683 709.345,550.074 707.616,554.657C716.354,554.458 723.692,552.041 730.33,547.52C732.165,546.27 730.529,544.459 730.042,542.988C729.017,539.891 727.882,536.826 731.561,534.629C735.105,532.513 737.594,534.563 739.856,536.928C746.172,543.527 750.724,551.139 752.555,560.178C753.502,564.854 751.325,568.7 746.721,569.724C742.458,570.672 740.094,567.71 738.338,564.299C737.747,563.153 737.932,561.61 735.956,560.499C724.4,567.529 711.47,571.084 697.109,570.311Z" style="fill:rgb(51,51,51);fill-rule:nonzero;"/>
                <path d="M703.633,579.911C707.375,579.89 710.122,578.304 713.043,576.691C718.785,573.523 724.926,571.009 731.495,574.18C738.508,577.565 741.635,584.746 739.926,593.038C739.327,595.947 738.289,598.773 737.346,601.602C736.867,603.037 736.541,604.279 737.109,605.884C738.912,610.981 737.577,613.393 732.412,615.162C727.625,616.802 722.619,616.932 717.66,617.155C715.149,617.268 712.782,617.521 710.382,618.341C706.625,619.624 701.412,617.193 701.156,613.38C700.457,602.98 699.663,592.506 701.961,582.165C702.127,581.421 702.86,580.804 703.633,579.911M717.479,603.818C723.749,599.538 724.834,593.055 725.617,586.063C721.067,585.072 717.447,586.345 713.868,587.625C711.883,588.336 710.752,590.008 711.709,591.977C713.623,595.917 710.446,601.784 716.337,604.158C716.458,604.207 716.652,604.076 717.479,603.818Z" style="fill:rgb(51,51,51);fill-rule:nonzero;"/>
                <path d="M226.794,558.721C228.786,557.638 230.592,557.812 231.931,558.752C240.778,564.961 250.433,563.243 259.879,561.365C275.032,558.352 290.366,556.101 305.147,551.365C308.257,550.368 311.316,550.138 313.997,552.744C317.317,555.971 317.13,560.123 313.355,562.971C309.969,565.525 306.017,566.958 301.979,567.806C286.87,570.979 271.746,574.109 256.557,576.864C245.82,578.812 235.649,577.201 227.043,569.812C222.767,566.142 222.662,562.951 226.794,558.721Z" style="fill:rgb(51,51,51);fill-rule:nonzero;"/>
                <path d="M515.173,544.819C520.444,546.381 522.155,549.243 520.956,554.154C519.759,559.053 517.531,563.564 514.714,567.679C513.038,570.127 512.71,572.424 513.293,575.169C515.831,587.115 513.382,599.023 512.856,610.942C512.794,612.355 512.128,613.879 511.341,615.092C509.952,617.232 508.754,620.368 505.346,619.035C501.906,617.69 497.545,616.7 497.785,611.666C498.085,605.363 498.745,599.077 499.268,592.785C499.455,590.532 500.264,588.25 498.996,586.065C496.827,585.753 495.648,587.627 493.917,588.039C490.556,588.839 487.289,587.989 485.38,585.352C483.473,582.718 485.049,579.853 487.146,577.738C489.836,575.025 492.85,572.633 495.516,569.899C501.589,563.674 506.686,556.707 510.759,549.007C511.697,547.234 512.586,545.411 515.173,544.819Z" style="fill:rgb(51,51,51);fill-rule:nonzero;"/>
                <path d="M422.573,512.995C425.157,514.681 427.988,516.301 427.337,519.228C426.664,522.259 424.35,524.914 421.24,525.992C405.755,531.363 389.759,532.42 373.558,531.016C370.408,530.743 367.537,529.191 364.947,527.281C362.925,525.791 360.643,524.508 361.68,521.319C362.712,518.148 365.051,516.95 368.159,516.895C372.984,516.81 377.811,516.66 382.634,516.73C393.657,516.891 404.554,516.254 415.112,512.657C417.429,511.868 419.912,510.974 422.573,512.995Z" style="fill:rgb(51,51,51);fill-rule:nonzero;"/>
                <path d="M569.608,520.932C560.466,524.414 551.131,524.928 541.966,526.218C538.54,526.7 535.494,527.229 533.403,530.295C532.862,531.088 531.922,531.614 531.147,532.24C528.977,533.993 526.81,534.484 524.404,532.536C522.16,530.72 522.069,528.309 523.21,526.249C527.642,518.247 532.728,510.63 538.894,503.861C541.932,500.527 545.743,501.878 547.064,506.441C547.469,507.837 547.409,509.368 547.555,510.78C549.79,512.578 551.816,511.097 553.785,510.604C557.163,509.757 560.49,508.698 563.823,507.678C568.619,506.21 574.39,507.782 575.349,511.397C576.553,515.939 573.984,518.922 569.608,520.932Z" style="fill:rgb(51,51,51);fill-rule:nonzero;"/>
                <path d="M483.42,550.422C489.248,543.423 495.557,537.268 499.543,529.253C501.144,526.033 504.772,526.267 506.78,529.328C508.78,532.375 507.929,535.415 506.369,538.274C500.032,549.893 491.142,559.467 481.901,568.776C478.33,572.374 475.389,570.802 472.514,568.057C469.543,565.22 471.709,562.913 473.605,560.81C476.715,557.36 479.977,554.046 483.42,550.422Z" style="fill:rgb(51,51,51);fill-rule:nonzero;"/>
            </g>
        </g>
    </g>
</svg>
